<?xml version="1.0" encoding="utf-8"?>
<!-- Generator: Adobe Illustrator 16.0.0, SVG Export Plug-In . SVG Version: 6.00 Build 0)  -->
<!DOCTYPE svg PUBLIC "-//W3C//DTD SVG 1.1//EN" "http://www.w3.org/Graphics/SVG/1.1/DTD/svg11.dtd">
<svg version="1.1" id="Capa_1" xmlns="http://www.w3.org/2000/svg" xmlns:xlink="http://www.w3.org/1999/xlink" x="0px" y="0px"
	 width="260.324px" height="98px" viewBox="0 0 260.324 98" style="enable-background:new 0 0 260.324 98;" xml:space="preserve">
<g>
	<polygon style="fill:#F2F5F7;" points="37.223,25.502 48.453,36.731 50.723,34.465 39.485,23.233 	"/>
	<polygon style="fill:#F2F5F7;" points="32.278,25.502 30.011,23.233 18.78,34.465 20.003,35.688 19.529,36.162 48.453,65.079 
		34.747,78.784 20.667,64.508 19.527,65.633 34.737,81.059 50.723,65.079 21.705,36.074 	"/>
	<path style="fill:#F2F5F7;" d="M35.01,24.565c1.845,0,3.345-1.496,3.345-3.347c0-1.847-1.5-3.346-3.345-3.346
		c-1.85,0-3.353,1.499-3.353,3.346C31.657,23.069,33.16,24.565,35.01,24.565z"/>
	<circle style="fill:#F2F5F7;" cx="93.534" cy="20.643" r="3.347"/>
	<path style="fill:#F2F5F7;" d="M152.863,23.989c1.85,0,3.353-1.497,3.353-3.348c0-1.846-1.503-3.346-3.353-3.346
		c-1.844,0-3.345,1.5-3.345,3.346C149.519,22.492,151.02,23.989,152.863,23.989z"/>
	<path style="fill:#F2F5F7;" d="M185.877,49.505c0-1.85-1.497-3.347-3.35-3.347c-1.844,0-3.348,1.497-3.348,3.347
		c0,1.852,1.504,3.346,3.348,3.346C184.38,52.851,185.877,51.356,185.877,49.505z"/>
	<path style="fill:#F2F5F7;" d="M241.058,46.158c-1.851,0-3.345,1.497-3.345,3.347c0,1.852,1.494,3.346,3.345,3.346
		c1.849,0,3.345-1.494,3.345-3.346C244.402,47.655,242.906,46.158,241.058,46.158z"/>
	<path style="fill:#F2F5F7;" d="M152.762,78.083L139.18,64.506l29.999-29.997l-0.612-0.612l0.009-0.009l-11.23-11.231l-2.267,2.269
		l10.707,10.709l-27.738,27.739l-13.065-13.06l25.39-25.389l-2.272-2.269l-54.777,54.78L66.558,50.683
		c0.314-0.426,0.525-0.927,0.609-1.473l24.286-24.285l-2.266-2.269L65.835,46.005c-0.553-0.404-1.228-0.649-1.965-0.649
		c-1.848,0-3.346,1.5-3.346,3.35c0,1.847,1.499,3.346,3.346,3.346c0.521,0,1.008-0.129,1.448-0.342l27.797,27.788l0.189-0.188
		l1.34,1.341l29.206-29.204l28.913,28.906l26.465-26.466l-1.131-1.136L152.762,78.083z"/>
	<polygon style="fill:#F2F5F7;" points="212.15,77.462 187.009,52.319 184.746,54.588 210.573,80.421 210.707,80.287 
		211.152,80.731 238.458,53.422 237.324,52.287 	"/>
	<rect x="239" y="55" style="fill:#F2F5F7;" width="4" height="26"/>
	<rect x="63" y="55" style="fill:#F2F5F7;" width="2" height="26"/>
</g>
</svg>
